<?xml version="1.0" standalone="no"?>
<!DOCTYPE svg PUBLIC "-//W3C//DTD SVG 20010904//EN"
 "http://www.w3.org/TR/2001/REC-SVG-20010904/DTD/svg10.dtd">
<svg version="1.0" xmlns="http://www.w3.org/2000/svg"
 width="182.000000pt" height="182.000000pt" viewBox="0 0 182.000000 182.000000"
 preserveAspectRatio="xMidYMid meet">
<metadata>
Created by potrace 1.11, written by Peter Selinger 2001-2013
</metadata>
<g transform="translate(0.000000,182.000000) scale(0.100000,-0.100000)"
fill="#000000" stroke="none">
<path d="M800 1813 c-84 -12 -215 -52 -289 -88 -242 -119 -411 -327 -482 -592
-28 -102 -30 -314 -5 -417 81 -334 331 -590 663 -677 99 -26 270 -32 374 -13
376 67 676 371 736 744 10 61 10 233 0 295 -11 69 -60 211 -93 271 -129 234
-344 399 -600 460 -64 15 -246 25 -304 17z"/>
</g>
</svg>
